0
SECTION
2
HEADER
9
$ACADVER
1
AC1006
9
$INSBASE
10
0.0
20
0.0
30
0.0
9
$EXTMIN
10
0.0
20
0.0
9
$EXTMAX
10
0.0
20
0.0
0
ENDSEC
0
SECTION
2
TABLES
0
TABLE
2
LTYPE
70
1
0
LTYPE
2
CONTINUOUS
70
64
3
Solid line
72
65
73
0
40
0.0
0
ENDTAB
0
TABLE
2
LAYER
70
1
0
LAYER
2
PYDXF
70
64
62
7
6
continuous
0
ENDTAB
0
TABLE
2
STYLE
70
1
0
STYLE
2
STANDARD
70
0
40
0
41
40
50
50
71
0
42
1
3
ARIAL.TTF
4

0
ENDTAB
0
TABLE
2
VIEW
70
0
0
ENDTAB
0
ENDSEC
0
SECTION
2
BLOCKS
0
BLOCK
8
0
2
SWOOP_LEFT
70
0
10
0
20
0
30
0
3
SWOOP_LEFT
0
ARC
8
0
10
0
20
0
40
1
50
0
51
90
0
LINE
8
0
10
1
20
0
11
1
21
-3
0
ARC
8
0
10
2
20
-3
40
1
50
180
51
270
0
LINE
8
0
10
2
20
-4
11
2.5
21
-4
0
ENDBLK
0
BLOCK
8
0
2
SWOOP_RIGHT
70
0
10
0
20
0
30
0
3
SWOOP_RIGHT
0
LINE
8
0
10
0
20
-4
11
0.5
21
-4
0
ARC
8
0
10
0.5
20
-3
40
1
50
270
51
360
0
LINE
8
0
10
1.5
20
-3
11
1.5
21
0
0
ARC
8
0
10
2.5
20
0
40
1
50
90
51
180
0
ENDBLK
0
BLOCK
8
0
2
POKEYBIT
70
0
10
0
20
0
30
0
3
POKEYBIT
0
LINE
8
0
10
0
20
0
11
0.5
21
-1
0
LINE
8
0
10
0.5
20
-1
11
1
21
0
0
ENDBLK
0
ENDSEC
0
SECTION
2
ENTITIES
0
INSERT
2
swoop_left
8
0
10
-0.25
20
0
0
INSERT
2
pokeybit
8
0
10
2.25
20
-4
0
LINE
8
0
10
3.25
20
-4
11
7.0
21
-4
0
INSERT
2
pokeybit
8
0
10
7.0
20
-4
0
LINE
8
0
10
8.0
20
-4
11
11.75
21
-4
0
INSERT
2
pokeybit
8
0
10
11.75
20
-4
0
LINE
8
0
10
12.75
20
-4
11
16.5
21
-4
0
INSERT
2
pokeybit
8
0
10
16.5
20
-4
0
LINE
8
0
10
17.5
20
-4
11
21.25
21
-4
0
INSERT
2
pokeybit
8
0
10
21.25
20
-4
0
LINE
8
0
10
22.25
20
-4
11
26.0
21
-4
0
INSERT
2
pokeybit
8
0
10
26.0
20
-4
0
LINE
8
0
10
27.0
20
-4
11
30.75
21
-4
0
INSERT
2
pokeybit
8
0
10
30.75
20
-4
0
LINE
8
0
10
31.75
20
-4
11
35.5
21
-4
0
INSERT
2
pokeybit
8
0
10
35.5
20
-4
0
LINE
8
0
10
36.5
20
-4
11
40.25
21
-4
0
INSERT
2
pokeybit
8
0
10
40.25
20
-4
0
LINE
8
0
10
41.25
20
-4
11
45.0
21
-4
0
INSERT
2
pokeybit
8
0
10
45.0
20
-4
0
LINE
8
0
10
46.0
20
-4
11
49.75
21
-4
0
INSERT
2
pokeybit
8
0
10
49.75
20
-4
0
LINE
8
0
10
50.75
20
-4
11
54.5
21
-4
0
INSERT
2
pokeybit
8
0
10
54.5
20
-4
0
LINE
8
0
10
55.5
20
-4
11
59.25
21
-4
0
INSERT
2
pokeybit
8
0
10
59.25
20
-4
0
LINE
8
0
10
60.25
20
-4
11
64.0
21
-4
0
INSERT
2
pokeybit
8
0
10
64.0
20
-4
0
LINE
8
0
10
65.0
20
-4
11
68.75
21
-4
0
INSERT
2
pokeybit
8
0
10
68.75
20
-4
0
LINE
8
0
10
69.75
20
-4
11
73.5
21
-4
0
INSERT
2
pokeybit
8
0
10
73.5
20
-4
0
LINE
8
0
10
74.5
20
-4
11
78.25
21
-4
0
INSERT
2
pokeybit
8
0
10
78.25
20
-4
0
LINE
8
0
10
79.25
20
-4
11
83.0
21
-4
0
INSERT
2
pokeybit
8
0
10
83.0
20
-4
0
LINE
8
0
10
84.0
20
-4
11
87.75
21
-4
0
INSERT
2
pokeybit
8
0
10
87.75
20
-4
0
LINE
8
0
10
88.75
20
-4
11
92.5
21
-4
0
INSERT
2
pokeybit
8
0
10
92.5
20
-4
0
LINE
8
0
10
93.5
20
-4
11
97.25
21
-4
0
INSERT
2
pokeybit
8
0
10
97.25
20
-4
0
LINE
8
0
10
98.25
20
-4
11
102.0
21
-4
0
INSERT
2
pokeybit
8
0
10
102.0
20
-4
0
LINE
8
0
10
103.0
20
-4
11
106.75
21
-4
0
INSERT
2
pokeybit
8
0
10
106.75
20
-4
0
LINE
8
0
10
107.75
20
-4
11
111.5
21
-4
0
INSERT
2
pokeybit
8
0
10
111.5
20
-4
0
INSERT
2
swoop_right
8
0
10
112.5
20
0
0
INSERT
2
swoop_left
8
0
10
-0.25
20
10
0
INSERT
2
pokeybit
8
0
10
2.25
20
6
0
INSERT
2
swoop_right
8
0
10
3.25
20
10
0
LINE
8
0
10
5.75
20
11
11
9.5
21
11
0
INSERT
2
swoop_left
8
0
10
9.25
20
10
0
INSERT
2
pokeybit
8
0
10
11.75
20
6
0
INSERT
2
swoop_right
8
0
10
12.75
20
10
0
LINE
8
0
10
15.25
20
11
11
19.0
21
11
0
INSERT
2
swoop_left
8
0
10
18.75
20
10
0
INSERT
2
pokeybit
8
0
10
21.25
20
6
0
INSERT
2
swoop_right
8
0
10
22.25
20
10
0
LINE
8
0
10
24.75
20
11
11
28.5
21
11
0
INSERT
2
swoop_left
8
0
10
28.25
20
10
0
INSERT
2
pokeybit
8
0
10
30.75
20
6
0
INSERT
2
swoop_right
8
0
10
31.75
20
10
0
LINE
8
0
10
34.25
20
11
11
38.0
21
11
0
INSERT
2
swoop_left
8
0
10
37.75
20
10
0
INSERT
2
pokeybit
8
0
10
40.25
20
6
0
INSERT
2
swoop_right
8
0
10
41.25
20
10
0
LINE
8
0
10
43.75
20
11
11
47.5
21
11
0
INSERT
2
swoop_left
8
0
10
47.25
20
10
0
INSERT
2
pokeybit
8
0
10
49.75
20
6
0
INSERT
2
swoop_right
8
0
10
50.75
20
10
0
LINE
8
0
10
53.25
20
11
11
57.0
21
11
0
INSERT
2
swoop_left
8
0
10
56.75
20
10
0
INSERT
2
pokeybit
8
0
10
59.25
20
6
0
INSERT
2
swoop_right
8
0
10
60.25
20
10
0
LINE
8
0
10
62.75
20
11
11
66.5
21
11
0
INSERT
2
swoop_left
8
0
10
66.25
20
10
0
INSERT
2
pokeybit
8
0
10
68.75
20
6
0
INSERT
2
swoop_right
8
0
10
69.75
20
10
0
LINE
8
0
10
72.25
20
11
11
76.0
21
11
0
INSERT
2
swoop_left
8
0
10
75.75
20
10
0
INSERT
2
pokeybit
8
0
10
78.25
20
6
0
INSERT
2
swoop_right
8
0
10
79.25
20
10
0
LINE
8
0
10
81.75
20
11
11
85.5
21
11
0
INSERT
2
swoop_left
8
0
10
85.25
20
10
0
INSERT
2
pokeybit
8
0
10
87.75
20
6
0
INSERT
2
swoop_right
8
0
10
88.75
20
10
0
LINE
8
0
10
91.25
20
11
11
95.0
21
11
0
INSERT
2
swoop_left
8
0
10
94.75
20
10
0
INSERT
2
pokeybit
8
0
10
97.25
20
6
0
INSERT
2
swoop_right
8
0
10
98.25
20
10
0
LINE
8
0
10
100.75
20
11
11
104.5
21
11
0
INSERT
2
swoop_left
8
0
10
104.25
20
10
0
INSERT
2
pokeybit
8
0
10
106.75
20
6
0
INSERT
2
swoop_right
8
0
10
107.75
20
10
0
LINE
8
0
10
110.25
20
11
11
114.0
21
11
0
LINE
8
0
10
114.0
20
11
11
115.0
21
11
0
INSERT
2
swoop_left
8
0
10
-0.25
20
20
0
INSERT
2
pokeybit
8
0
10
2.25
20
16
0
LINE
8
0
10
3.25
20
16
11
7.0
21
16
0
INSERT
2
pokeybit
8
0
10
7.0
20
16
0
INSERT
2
swoop_right
8
0
10
8.0
20
20
0
LINE
8
0
10
10.5
20
21
11
14.25
21
21
0
INSERT
2
swoop_left
8
0
10
14.0
20
20
0
INSERT
2
pokeybit
8
0
10
16.5
20
16
0
LINE
8
0
10
17.5
20
16
11
21.25
21
16
0
INSERT
2
pokeybit
8
0
10
21.25
20
16
0
INSERT
2
swoop_right
8
0
10
22.25
20
20
0
LINE
8
0
10
24.75
20
21
11
28.5
21
21
0
INSERT
2
swoop_left
8
0
10
28.25
20
20
0
INSERT
2
pokeybit
8
0
10
30.75
20
16
0
LINE
8
0
10
31.75
20
16
11
35.5
21
16
0
INSERT
2
pokeybit
8
0
10
35.5
20
16
0
INSERT
2
swoop_right
8
0
10
36.5
20
20
0
LINE
8
0
10
39.0
20
21
11
42.75
21
21
0
INSERT
2
swoop_left
8
0
10
42.5
20
20
0
INSERT
2
pokeybit
8
0
10
45.0
20
16
0
LINE
8
0
10
46.0
20
16
11
49.75
21
16
0
INSERT
2
pokeybit
8
0
10
49.75
20
16
0
INSERT
2
swoop_right
8
0
10
50.75
20
20
0
LINE
8
0
10
53.25
20
21
11
57.0
21
21
0
INSERT
2
swoop_left
8
0
10
56.75
20
20
0
INSERT
2
pokeybit
8
0
10
59.25
20
16
0
LINE
8
0
10
60.25
20
16
11
64.0
21
16
0
INSERT
2
pokeybit
8
0
10
64.0
20
16
0
INSERT
2
swoop_right
8
0
10
65.0
20
20
0
LINE
8
0
10
67.5
20
21
11
71.25
21
21
0
INSERT
2
swoop_left
8
0
10
71.0
20
20
0
INSERT
2
pokeybit
8
0
10
73.5
20
16
0
LINE
8
0
10
74.5
20
16
11
78.25
21
16
0
INSERT
2
pokeybit
8
0
10
78.25
20
16
0
INSERT
2
swoop_right
8
0
10
79.25
20
20
0
LINE
8
0
10
81.75
20
21
11
85.5
21
21
0
INSERT
2
swoop_left
8
0
10
85.25
20
20
0
INSERT
2
pokeybit
8
0
10
87.75
20
16
0
LINE
8
0
10
88.75
20
16
11
92.5
21
16
0
INSERT
2
pokeybit
8
0
10
92.5
20
16
0
INSERT
2
swoop_right
8
0
10
93.5
20
20
0
LINE
8
0
10
96.0
20
21
11
99.75
21
21
0
INSERT
2
swoop_left
8
0
10
99.5
20
20
0
INSERT
2
pokeybit
8
0
10
102.0
20
16
0
LINE
8
0
10
103.0
20
16
11
106.75
21
16
0
INSERT
2
pokeybit
8
0
10
106.75
20
16
0
INSERT
2
swoop_right
8
0
10
107.75
20
20
0
LINE
8
0
10
110.25
20
21
11
114.0
21
21
0
LINE
8
0
10
114.0
20
21
11
115.0
21
21
0
INSERT
2
swoop_left
8
0
10
-0.25
20
30
0
INSERT
2
pokeybit
8
0
10
2.25
20
26
0
LINE
8
0
10
3.25
20
26
11
7.0
21
26
0
INSERT
2
pokeybit
8
0
10
7.0
20
26
0
INSERT
2
swoop_right
8
0
10
8.0
20
30
0
LINE
8
0
10
10.5
20
31
11
19.0
21
31
0
INSERT
2
swoop_left
8
0
10
18.75
20
30
0
INSERT
2
pokeybit
8
0
10
21.25
20
26
0
LINE
8
0
10
22.25
20
26
11
26.0
21
26
0
INSERT
2
pokeybit
8
0
10
26.0
20
26
0
INSERT
2
swoop_right
8
0
10
27.0
20
30
0
LINE
8
0
10
29.5
20
31
11
38.0
21
31
0
INSERT
2
swoop_left
8
0
10
37.75
20
30
0
INSERT
2
pokeybit
8
0
10
40.25
20
26
0
LINE
8
0
10
41.25
20
26
11
45.0
21
26
0
INSERT
2
pokeybit
8
0
10
45.0
20
26
0
INSERT
2
swoop_right
8
0
10
46.0
20
30
0
LINE
8
0
10
48.5
20
31
11
57.0
21
31
0
INSERT
2
swoop_left
8
0
10
56.75
20
30
0
INSERT
2
pokeybit
8
0
10
59.25
20
26
0
LINE
8
0
10
60.25
20
26
11
64.0
21
26
0
INSERT
2
pokeybit
8
0
10
64.0
20
26
0
INSERT
2
swoop_right
8
0
10
65.0
20
30
0
LINE
8
0
10
67.5
20
31
11
76.0
21
31
0
INSERT
2
swoop_left
8
0
10
75.75
20
30
0
INSERT
2
pokeybit
8
0
10
78.25
20
26
0
LINE
8
0
10
79.25
20
26
11
83.0
21
26
0
INSERT
2
pokeybit
8
0
10
83.0
20
26
0
INSERT
2
swoop_right
8
0
10
84.0
20
30
0
LINE
8
0
10
86.5
20
31
11
95.0
21
31
0
INSERT
2
swoop_left
8
0
10
94.75
20
30
0
INSERT
2
pokeybit
8
0
10
97.25
20
26
0
LINE
8
0
10
98.25
20
26
11
102.0
21
26
0
INSERT
2
pokeybit
8
0
10
102.0
20
26
0
INSERT
2
swoop_right
8
0
10
103.0
20
30
0
LINE
8
0
10
105.5
20
31
11
114.0
21
31
0
LINE
8
0
10
114.0
20
31
11
115.0
21
31
0
ENDSEC
0
EOF
