0
SECTION
2
HEADER
9
$ACADVER
1
AC1006
9
$INSBASE
10
0.0
20
0.0
30
0.0
9
$EXTMIN
10
0.0
20
0.0
9
$EXTMAX
10
0.0
20
0.0
0
ENDSEC
0
SECTION
2
TABLES
0
TABLE
2
LTYPE
70
1
0
LTYPE
2
CONTINUOUS
70
64
3
Solid line
72
65
73
0
40
0.0
0
ENDTAB
0
TABLE
2
LAYER
70
1
0
LAYER
2
PYDXF
70
64
62
7
6
continuous
0
ENDTAB
0
TABLE
2
STYLE
70
1
0
STYLE
2
STANDARD
70
0
40
0
41
40
50
50
71
0
42
1
3
ARIAL.TTF
4

0
ENDTAB
0
TABLE
2
VIEW
70
0
0
ENDTAB
0
ENDSEC
0
SECTION
2
BLOCKS
0
BLOCK
8
0
2
SWOOP_LEFT
70
0
10
0
20
0
30
0
3
SWOOP_LEFT
0
ARC
8
0
10
0
20
0
40
1
50
0
51
90
0
LINE
8
0
10
1
20
0
11
1
21
-3
0
ARC
8
0
10
2
20
-3
40
1
50
180
51
270
0
LINE
8
0
10
2
20
-4
11
2.5
21
-4
0
ENDBLK
0
BLOCK
8
0
2
SWOOP_RIGHT
70
0
10
0
20
0
30
0
3
SWOOP_RIGHT
0
LINE
8
0
10
0
20
-4
11
0.5
21
-4
0
ARC
8
0
10
0.5
20
-3
40
1
50
270
51
360
0
LINE
8
0
10
1.5
20
-3
11
1.5
21
0
0
ARC
8
0
10
2.5
20
0
40
1
50
90
51
180
0
ENDBLK
0
BLOCK
8
0
2
POKEYBIT
70
0
10
0
20
0
30
0
3
POKEYBIT
0
LINE
8
0
10
0
20
0
11
0.5
21
-1
0
LINE
8
0
10
0.5
20
-1
11
1
21
0
0
ENDBLK
0
ENDSEC
0
SECTION
2
ENTITIES
0
INSERT
2
swoop_left
8
0
10
0
20
0
0
INSERT
2
pokeybit
8
0
10
2.5
20
-4
0
LINE
8
0
10
3.5
20
-4
11
7.5
21
-4
0
INSERT
2
pokeybit
8
0
10
7.5
20
-4
0
LINE
8
0
10
8.5
20
-4
11
12.5
21
-4
0
INSERT
2
pokeybit
8
0
10
12.5
20
-4
0
LINE
8
0
10
13.5
20
-4
11
17.5
21
-4
0
INSERT
2
pokeybit
8
0
10
17.5
20
-4
0
LINE
8
0
10
18.5
20
-4
11
22.5
21
-4
0
INSERT
2
pokeybit
8
0
10
22.5
20
-4
0
LINE
8
0
10
23.5
20
-4
11
27.5
21
-4
0
INSERT
2
pokeybit
8
0
10
27.5
20
-4
0
LINE
8
0
10
28.5
20
-4
11
32.5
21
-4
0
INSERT
2
pokeybit
8
0
10
32.5
20
-4
0
LINE
8
0
10
33.5
20
-4
11
37.5
21
-4
0
INSERT
2
pokeybit
8
0
10
37.5
20
-4
0
LINE
8
0
10
38.5
20
-4
11
42.5
21
-4
0
INSERT
2
pokeybit
8
0
10
42.5
20
-4
0
LINE
8
0
10
43.5
20
-4
11
47.5
21
-4
0
INSERT
2
pokeybit
8
0
10
47.5
20
-4
0
LINE
8
0
10
48.5
20
-4
11
52.5
21
-4
0
INSERT
2
pokeybit
8
0
10
52.5
20
-4
0
LINE
8
0
10
53.5
20
-4
11
57.5
21
-4
0
INSERT
2
pokeybit
8
0
10
57.5
20
-4
0
LINE
8
0
10
58.5
20
-4
11
62.5
21
-4
0
INSERT
2
pokeybit
8
0
10
62.5
20
-4
0
LINE
8
0
10
63.5
20
-4
11
67.5
21
-4
0
INSERT
2
pokeybit
8
0
10
67.5
20
-4
0
LINE
8
0
10
68.5
20
-4
11
72.5
21
-4
0
INSERT
2
pokeybit
8
0
10
72.5
20
-4
0
LINE
8
0
10
73.5
20
-4
11
77.5
21
-4
0
INSERT
2
pokeybit
8
0
10
77.5
20
-4
0
LINE
8
0
10
78.5
20
-4
11
82.5
21
-4
0
INSERT
2
pokeybit
8
0
10
82.5
20
-4
0
LINE
8
0
10
83.5
20
-4
11
87.5
21
-4
0
INSERT
2
pokeybit
8
0
10
87.5
20
-4
0
LINE
8
0
10
88.5
20
-4
11
92.5
21
-4
0
INSERT
2
pokeybit
8
0
10
92.5
20
-4
0
LINE
8
0
10
93.5
20
-4
11
97.5
21
-4
0
INSERT
2
pokeybit
8
0
10
97.5
20
-4
0
LINE
8
0
10
98.5
20
-4
11
102.5
21
-4
0
INSERT
2
pokeybit
8
0
10
102.5
20
-4
0
LINE
8
0
10
103.5
20
-4
11
107.5
21
-4
0
INSERT
2
pokeybit
8
0
10
107.5
20
-4
0
LINE
8
0
10
108.5
20
-4
11
112.5
21
-4
0
INSERT
2
pokeybit
8
0
10
112.5
20
-4
0
LINE
8
0
10
113.5
20
-4
11
117.5
21
-4
0
INSERT
2
pokeybit
8
0
10
117.5
20
-4
0
LINE
8
0
10
118.5
20
-4
11
122.5
21
-4
0
INSERT
2
pokeybit
8
0
10
122.5
20
-4
0
LINE
8
0
10
123.5
20
-4
11
127.5
21
-4
0
INSERT
2
pokeybit
8
0
10
127.5
20
-4
0
LINE
8
0
10
128.5
20
-4
11
132.5
21
-4
0
INSERT
2
pokeybit
8
0
10
132.5
20
-4
0
LINE
8
0
10
133.5
20
-4
11
137.5
21
-4
0
INSERT
2
pokeybit
8
0
10
137.5
20
-4
0
LINE
8
0
10
138.5
20
-4
11
142.5
21
-4
0
INSERT
2
pokeybit
8
0
10
142.5
20
-4
0
LINE
8
0
10
143.5
20
-4
11
147.5
21
-4
0
INSERT
2
pokeybit
8
0
10
147.5
20
-4
0
LINE
8
0
10
148.5
20
-4
11
152.5
21
-4
0
INSERT
2
pokeybit
8
0
10
152.5
20
-4
0
LINE
8
0
10
153.5
20
-4
11
157.5
21
-4
0
INSERT
2
pokeybit
8
0
10
157.5
20
-4
0
INSERT
2
swoop_right
8
0
10
158.5
20
0
0
INSERT
2
swoop_left
8
0
10
0
20
10
0
INSERT
2
pokeybit
8
0
10
2.5
20
6
0
INSERT
2
swoop_right
8
0
10
3.5
20
10
0
LINE
8
0
10
6
20
11
11
10
21
11
0
INSERT
2
swoop_left
8
0
10
10
20
10
0
INSERT
2
pokeybit
8
0
10
12.5
20
6
0
INSERT
2
swoop_right
8
0
10
13.5
20
10
0
LINE
8
0
10
16
20
11
11
20
21
11
0
INSERT
2
swoop_left
8
0
10
20
20
10
0
INSERT
2
pokeybit
8
0
10
22.5
20
6
0
INSERT
2
swoop_right
8
0
10
23.5
20
10
0
LINE
8
0
10
26
20
11
11
30
21
11
0
INSERT
2
swoop_left
8
0
10
30
20
10
0
INSERT
2
pokeybit
8
0
10
32.5
20
6
0
INSERT
2
swoop_right
8
0
10
33.5
20
10
0
LINE
8
0
10
36
20
11
11
40
21
11
0
INSERT
2
swoop_left
8
0
10
40
20
10
0
INSERT
2
pokeybit
8
0
10
42.5
20
6
0
INSERT
2
swoop_right
8
0
10
43.5
20
10
0
LINE
8
0
10
46
20
11
11
50
21
11
0
INSERT
2
swoop_left
8
0
10
50
20
10
0
INSERT
2
pokeybit
8
0
10
52.5
20
6
0
INSERT
2
swoop_right
8
0
10
53.5
20
10
0
LINE
8
0
10
56
20
11
11
60
21
11
0
INSERT
2
swoop_left
8
0
10
60
20
10
0
INSERT
2
pokeybit
8
0
10
62.5
20
6
0
INSERT
2
swoop_right
8
0
10
63.5
20
10
0
LINE
8
0
10
66
20
11
11
70
21
11
0
INSERT
2
swoop_left
8
0
10
70
20
10
0
INSERT
2
pokeybit
8
0
10
72.5
20
6
0
INSERT
2
swoop_right
8
0
10
73.5
20
10
0
LINE
8
0
10
76
20
11
11
80
21
11
0
INSERT
2
swoop_left
8
0
10
80
20
10
0
INSERT
2
pokeybit
8
0
10
82.5
20
6
0
INSERT
2
swoop_right
8
0
10
83.5
20
10
0
LINE
8
0
10
86
20
11
11
90
21
11
0
INSERT
2
swoop_left
8
0
10
90
20
10
0
INSERT
2
pokeybit
8
0
10
92.5
20
6
0
INSERT
2
swoop_right
8
0
10
93.5
20
10
0
LINE
8
0
10
96
20
11
11
100
21
11
0
INSERT
2
swoop_left
8
0
10
100
20
10
0
INSERT
2
pokeybit
8
0
10
102.5
20
6
0
INSERT
2
swoop_right
8
0
10
103.5
20
10
0
LINE
8
0
10
106
20
11
11
110
21
11
0
INSERT
2
swoop_left
8
0
10
110
20
10
0
INSERT
2
pokeybit
8
0
10
112.5
20
6
0
INSERT
2
swoop_right
8
0
10
113.5
20
10
0
LINE
8
0
10
116
20
11
11
120
21
11
0
INSERT
2
swoop_left
8
0
10
120
20
10
0
INSERT
2
pokeybit
8
0
10
122.5
20
6
0
INSERT
2
swoop_right
8
0
10
123.5
20
10
0
LINE
8
0
10
126
20
11
11
130
21
11
0
INSERT
2
swoop_left
8
0
10
130
20
10
0
INSERT
2
pokeybit
8
0
10
132.5
20
6
0
INSERT
2
swoop_right
8
0
10
133.5
20
10
0
LINE
8
0
10
136
20
11
11
140
21
11
0
INSERT
2
swoop_left
8
0
10
140
20
10
0
INSERT
2
pokeybit
8
0
10
142.5
20
6
0
INSERT
2
swoop_right
8
0
10
143.5
20
10
0
LINE
8
0
10
146
20
11
11
150
21
11
0
INSERT
2
swoop_left
8
0
10
150
20
10
0
INSERT
2
pokeybit
8
0
10
152.5
20
6
0
INSERT
2
swoop_right
8
0
10
153.5
20
10
0
LINE
8
0
10
156
20
11
11
160
21
11
0
LINE
8
0
10
160
20
11
11
161
21
11
0
INSERT
2
swoop_left
8
0
10
0
20
20
0
INSERT
2
pokeybit
8
0
10
2.5
20
16
0
LINE
8
0
10
3.5
20
16
11
7.5
21
16
0
INSERT
2
pokeybit
8
0
10
7.5
20
16
0
INSERT
2
swoop_right
8
0
10
8.5
20
20
0
LINE
8
0
10
11
20
21
11
15
21
21
0
INSERT
2
swoop_left
8
0
10
15
20
20
0
INSERT
2
pokeybit
8
0
10
17.5
20
16
0
LINE
8
0
10
18.5
20
16
11
22.5
21
16
0
INSERT
2
pokeybit
8
0
10
22.5
20
16
0
INSERT
2
swoop_right
8
0
10
23.5
20
20
0
LINE
8
0
10
26
20
21
11
30
21
21
0
INSERT
2
swoop_left
8
0
10
30
20
20
0
INSERT
2
pokeybit
8
0
10
32.5
20
16
0
LINE
8
0
10
33.5
20
16
11
37.5
21
16
0
INSERT
2
pokeybit
8
0
10
37.5
20
16
0
INSERT
2
swoop_right
8
0
10
38.5
20
20
0
LINE
8
0
10
41
20
21
11
45
21
21
0
INSERT
2
swoop_left
8
0
10
45
20
20
0
INSERT
2
pokeybit
8
0
10
47.5
20
16
0
LINE
8
0
10
48.5
20
16
11
52.5
21
16
0
INSERT
2
pokeybit
8
0
10
52.5
20
16
0
INSERT
2
swoop_right
8
0
10
53.5
20
20
0
LINE
8
0
10
56
20
21
11
60
21
21
0
INSERT
2
swoop_left
8
0
10
60
20
20
0
INSERT
2
pokeybit
8
0
10
62.5
20
16
0
LINE
8
0
10
63.5
20
16
11
67.5
21
16
0
INSERT
2
pokeybit
8
0
10
67.5
20
16
0
INSERT
2
swoop_right
8
0
10
68.5
20
20
0
LINE
8
0
10
71
20
21
11
75
21
21
0
INSERT
2
swoop_left
8
0
10
75
20
20
0
INSERT
2
pokeybit
8
0
10
77.5
20
16
0
LINE
8
0
10
78.5
20
16
11
82.5
21
16
0
INSERT
2
pokeybit
8
0
10
82.5
20
16
0
INSERT
2
swoop_right
8
0
10
83.5
20
20
0
LINE
8
0
10
86
20
21
11
90
21
21
0
INSERT
2
swoop_left
8
0
10
90
20
20
0
INSERT
2
pokeybit
8
0
10
92.5
20
16
0
LINE
8
0
10
93.5
20
16
11
97.5
21
16
0
INSERT
2
pokeybit
8
0
10
97.5
20
16
0
INSERT
2
swoop_right
8
0
10
98.5
20
20
0
LINE
8
0
10
101
20
21
11
105
21
21
0
INSERT
2
swoop_left
8
0
10
105
20
20
0
INSERT
2
pokeybit
8
0
10
107.5
20
16
0
LINE
8
0
10
108.5
20
16
11
112.5
21
16
0
INSERT
2
pokeybit
8
0
10
112.5
20
16
0
INSERT
2
swoop_right
8
0
10
113.5
20
20
0
LINE
8
0
10
116
20
21
11
120
21
21
0
INSERT
2
swoop_left
8
0
10
120
20
20
0
INSERT
2
pokeybit
8
0
10
122.5
20
16
0
LINE
8
0
10
123.5
20
16
11
127.5
21
16
0
INSERT
2
pokeybit
8
0
10
127.5
20
16
0
INSERT
2
swoop_right
8
0
10
128.5
20
20
0
LINE
8
0
10
131
20
21
11
135
21
21
0
INSERT
2
swoop_left
8
0
10
135
20
20
0
INSERT
2
pokeybit
8
0
10
137.5
20
16
0
LINE
8
0
10
138.5
20
16
11
142.5
21
16
0
INSERT
2
pokeybit
8
0
10
142.5
20
16
0
INSERT
2
swoop_right
8
0
10
143.5
20
20
0
LINE
8
0
10
146
20
21
11
150
21
21
0
INSERT
2
swoop_left
8
0
10
150
20
20
0
INSERT
2
pokeybit
8
0
10
152.5
20
16
0
LINE
8
0
10
153.5
20
16
11
157.5
21
16
0
INSERT
2
pokeybit
8
0
10
157.5
20
16
0
INSERT
2
swoop_right
8
0
10
158.5
20
20
0
LINE
8
0
10
161
20
21
11
165
21
21
0
LINE
8
0
10
165
20
21
11
166
21
21
0
INSERT
2
swoop_left
8
0
10
0
20
30
0
INSERT
2
pokeybit
8
0
10
2.5
20
26
0
LINE
8
0
10
3.5
20
26
11
7.5
21
26
0
INSERT
2
pokeybit
8
0
10
7.5
20
26
0
INSERT
2
swoop_right
8
0
10
8.5
20
30
0
LINE
8
0
10
11
20
31
11
20
21
31
0
INSERT
2
swoop_left
8
0
10
20
20
30
0
INSERT
2
pokeybit
8
0
10
22.5
20
26
0
LINE
8
0
10
23.5
20
26
11
27.5
21
26
0
INSERT
2
pokeybit
8
0
10
27.5
20
26
0
INSERT
2
swoop_right
8
0
10
28.5
20
30
0
LINE
8
0
10
31
20
31
11
40
21
31
0
INSERT
2
swoop_left
8
0
10
40
20
30
0
INSERT
2
pokeybit
8
0
10
42.5
20
26
0
LINE
8
0
10
43.5
20
26
11
47.5
21
26
0
INSERT
2
pokeybit
8
0
10
47.5
20
26
0
INSERT
2
swoop_right
8
0
10
48.5
20
30
0
LINE
8
0
10
51
20
31
11
60
21
31
0
INSERT
2
swoop_left
8
0
10
60
20
30
0
INSERT
2
pokeybit
8
0
10
62.5
20
26
0
LINE
8
0
10
63.5
20
26
11
67.5
21
26
0
INSERT
2
pokeybit
8
0
10
67.5
20
26
0
INSERT
2
swoop_right
8
0
10
68.5
20
30
0
LINE
8
0
10
71
20
31
11
80
21
31
0
INSERT
2
swoop_left
8
0
10
80
20
30
0
INSERT
2
pokeybit
8
0
10
82.5
20
26
0
LINE
8
0
10
83.5
20
26
11
87.5
21
26
0
INSERT
2
pokeybit
8
0
10
87.5
20
26
0
INSERT
2
swoop_right
8
0
10
88.5
20
30
0
LINE
8
0
10
91
20
31
11
100
21
31
0
INSERT
2
swoop_left
8
0
10
100
20
30
0
INSERT
2
pokeybit
8
0
10
102.5
20
26
0
LINE
8
0
10
103.5
20
26
11
107.5
21
26
0
INSERT
2
pokeybit
8
0
10
107.5
20
26
0
INSERT
2
swoop_right
8
0
10
108.5
20
30
0
LINE
8
0
10
111
20
31
11
120
21
31
0
INSERT
2
swoop_left
8
0
10
120
20
30
0
INSERT
2
pokeybit
8
0
10
122.5
20
26
0
LINE
8
0
10
123.5
20
26
11
127.5
21
26
0
INSERT
2
pokeybit
8
0
10
127.5
20
26
0
INSERT
2
swoop_right
8
0
10
128.5
20
30
0
LINE
8
0
10
131
20
31
11
140
21
31
0
INSERT
2
swoop_left
8
0
10
140
20
30
0
INSERT
2
pokeybit
8
0
10
142.5
20
26
0
LINE
8
0
10
143.5
20
26
11
147.5
21
26
0
INSERT
2
pokeybit
8
0
10
147.5
20
26
0
INSERT
2
swoop_right
8
0
10
148.5
20
30
0
LINE
8
0
10
151
20
31
11
160
21
31
0
LINE
8
0
10
160
20
31
11
161
21
31
0
ENDSEC
0
EOF
